<?xml version="1.0" standalone="no"?><!DOCTYPE svg PUBLIC "-//W3C//DTD SVG 1.1//EN" "http://www.w3.org/Graphics/SVG/1.1/DTD/svg11.dtd"><svg t="1723434012542" class="icon" viewBox="0 0 1049 1024" version="1.1" xmlns="http://www.w3.org/2000/svg" p-id="11625" xmlns:xlink="http://www.w3.org/1999/xlink" width="204.8828125" height="200"><path d="M496.76190433 423.61904733m-256 0a256 256 0 1 0 512 0 256 256 0 1 0-512 0Z" fill="#FFFFFF" p-id="11626"></path><path d="M167.61904733 996.57142833l152.600381-317.269333a304.956952 304.956952 0 0 1 179.297524-551.399619 299.203048 299.203048 0 0 1 227.742476 102.912V80.96914333h-50.931809V21.33333333h179.858285v59.63581h-49.664v340.358095h-1.389714c0.146286 4.022857 0.26819 7.68 0.268191 11.605333a304.761905 304.761905 0 0 1-132.827429 251.855238L822.68647633 996.57142833z m106.886096-563.638857A225.840762 225.840762 0 1 0 500.41904733 207.11619033a226.108952 226.108952 0 0 0-225.913904 225.816381z m69.851428 0a156.038095 156.038095 0 1 1 156.038095 156.038095 156.208762 156.208762 0 0 1-156.038095-155.964952z" fill="#8a8a8a" p-id="11627" data-spm-anchor-id="a313x.search_index.0.i22.6f403a81MYPZ6u" class="selected"></path></svg>