<?xml version="1.0" standalone="no"?><!DOCTYPE svg PUBLIC "-//W3C//DTD SVG 1.1//EN" "http://www.w3.org/Graphics/SVG/1.1/DTD/svg11.dtd"><svg t="1723437559874" class="icon" viewBox="0 0 1024 1024" version="1.1" xmlns="http://www.w3.org/2000/svg" p-id="26470" data-spm-anchor-id="a313x.search_index.0.i36.6f403a81MYPZ6u" xmlns:xlink="http://www.w3.org/1999/xlink" width="200" height="200"><path d="M512 832c-26.197333 0-60.032-14.506667-75.733333-24.832-19.029333-12.501333-114.517333-84.309333-193.962667-150.826667-13.226667-11.093333-32.896-31.658667-51.925333-51.541333-14.122667-14.72-26.922667-28.245333-33.536-33.834667a21.333333 21.333333 0 0 1 27.562666-32.597333c7.253333 6.144 21.376 20.778667 36.821334 36.906667 17.408 18.176 37.12 38.741333 48.512 48.341333 81.109333 67.925333 175.018667 137.984 189.994666 147.84 12.501333 8.277333 38.058667 17.877333 52.266667 17.877333 19.968 0 21.802667-5.12 22.613333-7.253333a21.333333 21.333333 0 0 1 34.474667-8.490667c8.490667 7.765333 17.962667 6.272 24.490667 3.797334a40.533333 40.533333 0 0 0 25.173333-32.682667 21.333333 21.333333 0 0 1 35.797333-13.610667c5.333333 4.949333 19.584 6.144 33.237334-0.768 5.376-2.688 17.792-10.453333 16.341333-24.021333a21.333333 21.333333 0 0 1 33.322667-19.84c6.272 4.394667 17.834667 2.090667 26.282666-5.162667a25.002667 25.002667 0 0 0 6.357334-32.042666c-16-33.28-87.125333-90.794667-149.845334-141.525334-34.688-28.032-67.626667-54.698667-92.032-77.610666a419.626667 419.626667 0 0 0-14.933333 6.4c-11.093333 4.992-18.474667 8.064-32.042667 10.154666-32.853333 43.605333-76.970667 58.88-125.312 42.922667-19.285333-6.357333-32.256-20.010667-36.650666-38.442667-10.24-43.306667 29.397333-102.357333 58.581333-131.541333 76.672-76.714667 130.346667-105.514667 228.181333-61.781333 83.968 37.589333 168.106667 66.986667 168.96 67.285333a21.376 21.376 0 0 1-14.037333 40.32c-0.853333-0.298667-86.698667-30.293333-172.373333-68.608-75.52-33.749333-111.274667-16.384-180.608 52.992-29.141333 29.141333-51.626667 72.746667-47.146667 91.477333 0.64 2.730667 1.834667 5.589333 8.490667 7.808 20.864 6.997333 52.096 10.837333 82.261333-34.261333a21.333333 21.333333 0 0 1 15.616-9.344c14.378667-1.450667 17.962667-3.072 28.629333-7.850667 6.997333-3.114667 15.872-7.125333 30.250667-12.330666a21.333333 21.333333 0 0 1 22.314667 4.992c23.338667 23.338667 59.946667 52.949333 98.688 84.266666 69.461333 56.192 141.354667 114.346667 161.450666 156.245334 14.165333 29.397333 7.424 61.994667-17.066666 82.944a69.76 69.76 0 0 1-48.938667 17.536c-6.144 15.402667-18.517333 28.586667-35.626667 37.205333-17.493333 8.789333-36.736 11.306667-53.546666 7.722667a84.053333 84.053333 0 0 1-44.416 41.002666c-16.426667 6.4-33.493333 6.357333-48.512 0.512-11.221333 9.429333-27.392 14.250667-48.426667 14.250667z" p-id="26471" data-spm-anchor-id="a313x.search_index.0.i37.6f403a81MYPZ6u" class="selected" fill="#8a8a8a"></path><path d="M426.666667 320H234.666667a21.333333 21.333333 0 0 1 0-42.666667H426.666667a21.333333 21.333333 0 0 1 0 42.666667zM790.997333 660.565333a21.333333 21.333333 0 0 1-11.946666-39.04l62.378666-41.898666a21.333333 21.333333 0 0 1 23.808 35.413333l-62.378666 41.898667a21.162667 21.162667 0 0 1-11.861334 3.626666zM725.333333 725.333333a21.248 21.248 0 0 1-13.184-4.565333c-22.485333-17.749333-119.210667-118.570667-130.176-130.005333a21.333333 21.333333 0 1 1 30.805334-29.525334c42.24 44.032 110.549333 113.962667 125.824 125.994667A21.333333 21.333333 0 0 1 725.333333 725.333333zM640 768a21.418667 21.418667 0 0 1-13.312-4.650667c-31.658667-25.344-108.288-108.074667-109.056-108.885333a21.333333 21.333333 0 0 1 31.445333-28.885333c14.506667 15.786667 78.72 84.010667 104.277334 104.448A21.376 21.376 0 0 1 640 768zM554.666667 810.666667a21.290667 21.290667 0 0 1-13.738667-5.034667c-31.445333-26.538667-91.008-89.685333-108.501333-108.416a21.333333 21.333333 0 0 1 31.189333-29.141333c12.16 13.013333 74.410667 79.274667 104.832 104.917333A21.333333 21.333333 0 0 1 554.666667 810.666667z" p-id="26472" data-spm-anchor-id="a313x.search_index.0.i38.6f403a81MYPZ6u" class="selected" fill="#8a8a8a"></path><path d="M149.333333 618.666667h-128A21.333333 21.333333 0 0 1 0 597.333333V213.333333a21.333333 21.333333 0 0 1 22.613333-21.290666c43.946667 2.602667 190.165333 13.824 226.730667 48.469333a21.248 21.248 0 0 1 6.570667 17.322667c-9.685333 110.933333-83.2 336.554667-86.314667 346.112a21.333333 21.333333 0 0 1-20.266667 14.72z m-106.666666-42.666667h91.093333c15.872-50.090667 67.029333-216.106667 78.336-309.546667-26.88-13.056-100.864-24.832-169.429333-30.250666V576zM1002.666667 661.333333h-128a21.333333 21.333333 0 0 1-20.565334-15.658666c-15.872-57.514667-98.432-293.290667-124.8-335.744a21.248 21.248 0 0 1 9.045334-30.592C742.229333 277.546667 835.157333 234.666667 1002.666667 234.666667a21.333333 21.333333 0 0 1 21.333333 21.333333v384a21.333333 21.333333 0 0 1-21.333333 21.333333z m-112.042667-42.666666H981.333333V277.589333c-101.504 2.389333-171.434667 21.376-203.989333 32.426667C810.666667 381.013333 870.4 552.789333 890.624 618.666667z" p-id="26473" data-spm-anchor-id="a313x.search_index.0.i35.6f403a81MYPZ6u" class="selected" fill="#8a8a8a"></path></svg>