<?xml version="1.0" standalone="no"?><!DOCTYPE svg PUBLIC "-//W3C//DTD SVG 1.1//EN" "http://www.w3.org/Graphics/SVG/1.1/DTD/svg11.dtd"><svg t="1723368275207" class="icon" viewBox="0 0 1024 1024" version="1.1" xmlns="http://www.w3.org/2000/svg" p-id="34157" xmlns:xlink="http://www.w3.org/1999/xlink" width="200" height="200"><path d="M959.794 585.465l-32.391-289.221c-2.022-18.053-18.446-31.169-36.499-29.147l-32.606 3.652c-18.053 2.022-31.169 18.446-29.147 36.499l32.391 289.221c2.022 18.053 18.446 31.169 36.499 29.147l32.606-3.652c18.053-2.022 31.169-18.447 29.147-36.499zM239.504 258.323l-30.799-11.308c-17.053-6.261-36.127 2.569-42.388 19.622L66.014 539.835c-6.261 17.053 2.569 36.127 19.622 42.388l30.799 11.308c17.053 6.261 36.127-2.569 42.388-19.622l100.303-273.198c6.26-17.053-2.569-36.127-19.622-42.388zM802.961 309.279c-2.108-18.822-11.201-36.08-25.604-48.596-14.559-12.651-33.398-18.962-51.983-17.48H547.385l-155.259 28.229-15.097-5.542c-37.485-13.764-79.184 5.537-92.949 43.025L183.459 582.984c-13.764 37.487 5.537 79.183 43.027 92.949l274.066 100.62c8.104 2.975 16.516 4.457 24.913 4.457 10.378-0.001 20.733-2.263 30.453-6.762 17.583-8.139 30.93-22.6 37.582-40.72l13.069-35.598 164.972-18.477c19.181-2.148 36.404-11.67 48.495-26.81 12.091-15.141 17.567-34.044 15.418-53.226l-32.493-290.138zM528.169 714.302c-1.113 0.515-2.854 0.972-4.85 0.242l-274.067-100.62c-3.241-1.19-4.974-4.933-3.784-8.173l100.621-274.068c0.934-2.544 3.442-4.158 6.046-4.158 0.713 0 1.433 0.121 2.13 0.377l4.255 1.562c-4.997 44.105-6.35 83.454-3.899 114.968 1.581 20.344 4.802 37.206 9.572 50.119 9.65 26.119 25.518 35.322 37.129 38.444 4.315 1.16 8.724 1.686 13.184 1.686 29.829-0.002 61.705-23.58 79.399-39.048 26.95-23.559 50.943-54.241 69.293-88.28l22.947 7.467 42.508 13.832c0.091 0.04 0.177 0.088 0.265 0.131 0.101 0.049 0.204 0.097 0.299 0.149 0.151 0.085 0.297 0.178 0.439 0.274 0.025 0.017 0.052 0.032 0.076 0.049 0.143 0.1 0.281 0.208 0.415 0.319l0.068 0.056c0.116 0.099 0.226 0.205 0.334 0.312 0.042 0.042 0.087 0.084 0.127 0.127 0.071 0.074 0.136 0.152 0.203 0.229 0.076 0.089 0.154 0.178 0.223 0.268l0.027 0.037a6.875 6.875 0 0 1 1.225 2.69l0.03 0.162c0.022 0.117 0.04 0.236 0.056 0.358a7.14 7.14 0 0 1 0.043 0.567c0.004 0.143 0.003 0.287-0.002 0.431-0.002 0.063-0.006 0.125-0.01 0.189-0.01 0.14-0.024 0.28-0.043 0.42a5.997 5.997 0 0 1-0.049 0.283c-0.021 0.113-0.041 0.225-0.069 0.337a6.058 6.058 0 0 1-0.197 0.655L531.491 710.761c-0.732 1.995-2.211 3.027-3.322 3.541z m236.02-100.494L632.021 628.61l47.966-130.649 14.135-38.5c0.02-0.055 0.036-0.11 0.056-0.165a72.18 72.18 0 0 0 1.122-3.315c0.092-0.294 0.165-0.59 0.253-0.885 0.262-0.88 0.521-1.76 0.748-2.645 0.064-0.25 0.114-0.501 0.175-0.751 0.23-0.937 0.453-1.875 0.645-2.817 0.033-0.162 0.057-0.323 0.088-0.485 0.204-1.034 0.391-2.07 0.549-3.109 0.009-0.059 0.014-0.117 0.023-0.176a71.485 71.485 0 0 0-0.576-24.459c-0.026-0.133-0.059-0.265-0.086-0.398a72.38 72.38 0 0 0-0.65-2.924c-0.132-0.538-0.287-1.07-0.432-1.605-0.152-0.558-0.292-1.118-0.457-1.674a73.058 73.058 0 0 0-8.922-19.275c-0.316-0.484-0.651-0.952-0.977-1.427-0.315-0.458-0.621-0.921-0.947-1.372a72.741 72.741 0 0 0-1.793-2.367c-0.09-0.114-0.174-0.232-0.264-0.345a71.48 71.48 0 0 0-18.238-16.241c-0.064-0.04-0.126-0.083-0.19-0.123a71.565 71.565 0 0 0-2.67-1.561c-0.163-0.091-0.32-0.189-0.484-0.279a73.196 73.196 0 0 0-2.49-1.292c-0.255-0.128-0.503-0.266-0.761-0.391a72.737 72.737 0 0 0-2.374-1.083c-0.324-0.143-0.639-0.298-0.965-0.437a73.753 73.753 0 0 0-2.807-1.112c-0.202-0.076-0.397-0.163-0.6-0.238l-0.015-0.005-0.566-0.208-94.273-30.677-0.002 0.005-28.701-9.345-11.88 27.748c-17.908 41.828-41.824 69.818-58.734 85.933-13.756 13.109-25.154 20.59-32.844 24.605-1.826-7.656-3.804-20.358-4.405-40.53-0.772-25.905 0.949-57.186 4.98-91.382l128.684-23.397H728.75l1.831-0.205c2.211-0.235 6.234 3.114 6.734 7.577l32.494 290.139c0.384 3.432-2.19 6.655-5.62 7.04z" p-id="34158" fill="#8a8a8a"></path></svg>