<?xml version="1.0" standalone="no"?><!DOCTYPE svg PUBLIC "-//W3C//DTD SVG 1.1//EN" "http://www.w3.org/Graphics/SVG/1.1/DTD/svg11.dtd"><svg t="1723368232441" class="icon" viewBox="0 0 1024 1024" version="1.1" xmlns="http://www.w3.org/2000/svg" p-id="32116" xmlns:xlink="http://www.w3.org/1999/xlink" width="200" height="200"><path d="M354.658278 457.6h0.44544c23.6416-19.86304 96.86784-105.09568 123.10272-109.61664a745.36448 745.36448 0 0 1 145.344 8.96768c56.4736 7.33696 34.5344 38.31552 25.49248 41.87392-8.96768 3.5584-116.73088 11.11552-152.90112 16.82432-32.38656 5.18912-27.64288 48.99072 8.97024 50.69568 36.61312 1.63072 202.112 17.04704 257.84576 12.08064 47.28576-4.29824 111.3216-76.48768 130.95936-99.90656 3.9296-4.44672 5.56288-10.52416 4.52352-16.3072v-2.14784a23.46496 23.46496 0 0 0-4.00128-8.74752l-109.39136-132.36992a19.5712 19.5712 0 0 0-17.93792-7.11424 19.328 19.328 0 0 0-9.48736 3.78112 188.672 188.672 0 0 1-49.3568 26.75456c-23.64416 6.89152-157.86752-13.26592-203.96544-4.00128s-165.49888 145.5616-191.21664 175.2064c-11.78624 14.45376-20.82816 35.05664-18.67776 40.9856 12.74624 26.46016 44.61312 15.78752 60.25216 3.04128z m375.09888 111.9872c-12.74624-26.53184-44.68992-15.8592-60.25216-3.11552h-0.448c-23.7184 19.93984-96.94208 105.09824-123.17952 109.6192a745.472 745.472 0 0 1-145.33632-8.96768c-56.47872-7.33696-34.53952-38.32064-25.4976-41.87392 8.96768-3.5584 116.73344-11.11808 152.90112-16.82432 32.38912-5.18912 27.64544-48.99328-8.96768-50.69568-36.61312-1.63328-202.11456-17.04704-257.84832-12.0832-47.36 4.29824-111.39584 76.48512-131.03616 99.90656-3.92704 4.44672-5.55776 10.52416-4.52096 16.30464v2.1504a23.58528 23.58528 0 0 0 4.00128 8.74752l109.39392 132.29568a19.55328 19.55328 0 0 0 17.93536 7.11168 19.29216 19.29216 0 0 0 9.48736-3.78112 188.61056 188.61056 0 0 1 49.35936-26.75456c23.64416-6.88896 157.86752 13.26848 203.968 4.00128 46.09792-9.26208 165.42208-145.5616 191.21664-175.13472 11.9296-14.3744 20.97408-34.97728 18.82368-40.90624zM147.853798 911.7184c-10.8672 9.50016-28.73088 6.85056-39.8976-5.92128l-99.41248-113.7152c-11.16672-12.76928-11.40992-30.83008-0.54016-40.33024l13.12-11.4688c10.86464-9.50016 28.72832-6.848 39.89504 5.92384l99.41248 113.71264c11.16672 12.76928 11.40992 30.83008 0.54272 40.32768l-13.12 11.47136zM1005.092838 296.88576c-9.96864 8.71168-27.10016 5.42464-38.26688-7.3472L867.410918 175.82592c-11.16672-12.77184-12.13696-30.19264-2.17088-38.90432l12.032-10.51648c9.96608-8.7168 27.09504-5.42464 38.26176 7.3472l99.41248 113.71264c11.16672 12.76928 12.14208 30.19008 2.176 38.90432l-12.02944 10.51648z" p-id="32117" fill="#8a8a8a"></path></svg>