<?xml version="1.0" standalone="no"?><!DOCTYPE svg PUBLIC "-//W3C//DTD SVG 1.1//EN" "http://www.w3.org/Graphics/SVG/1.1/DTD/svg11.dtd"><svg t="1723368141628" class="icon" viewBox="0 0 1024 1024" version="1.1" xmlns="http://www.w3.org/2000/svg" p-id="28077" xmlns:xlink="http://www.w3.org/1999/xlink" width="200" height="200"><path d="M921.6 614.4H836.266667V494.933333a34.133333 34.133333 0 0 0-34.133334-34.133333H563.2v-51.2h85.333333a34.133333 34.133333 0 0 0 34.133334-34.133333V102.4a34.133333 34.133333 0 0 0-34.133334-34.133333H375.466667a34.133333 34.133333 0 0 0-34.133334 34.133333v273.066667a34.133333 34.133333 0 0 0 34.133334 34.133333h85.333333v51.2H221.866667a34.133333 34.133333 0 0 0-34.133334 34.133333v119.466667H102.4a34.133333 34.133333 0 0 0-34.133333 34.133333v273.066667a34.133333 34.133333 0 0 0 34.133333 34.133333h273.066667a34.133333 34.133333 0 0 0 34.133333-34.133333V648.533333a34.133333 34.133333 0 0 0-34.133333-34.133333H290.133333v-51.2h443.733334v51.2H648.533333a34.133333 34.133333 0 0 0-34.133333 34.133333v273.066667a34.133333 34.133333 0 0 0 34.133333 34.133333h273.066667a34.133333 34.133333 0 0 0 34.133333-34.133333V648.533333a34.133333 34.133333 0 0 0-34.133333-34.133333zM443.733333 170.666667h136.533334v136.533333H443.733333z m-136.533333 682.666666H170.666667V716.8h136.533333z m546.133333 0H716.8V716.8h136.533333z" fill="#8a8a8a" p-id="28078"></path></svg>