<?xml version="1.0" standalone="no"?><!DOCTYPE svg PUBLIC "-//W3C//DTD SVG 1.1//EN" "http://www.w3.org/Graphics/SVG/1.1/DTD/svg11.dtd"><svg t="1723367276044" class="icon" viewBox="0 0 1024 1024" version="1.1" xmlns="http://www.w3.org/2000/svg" p-id="8924" data-spm-anchor-id="a313x.search_index.0.i20.74f73a81YIVSqV" xmlns:xlink="http://www.w3.org/1999/xlink" width="200" height="200"><path d="M343.05872811 671.80931125v-51.25681136h-60.388772v51.25681136h-72.46652639v241.26050861h72.46652639v51.25681134h60.388772v-51.25681134h36.2332632V671.80931125h-36.2332632z m12.0777544 217.2522895h-120.63025431V695.96482006h120.63025431V889.06160075z m386.04627169-217.2522895v-51.25681136h-60.388772v51.25681136H644.56071902v241.26050861h36.23326318v51.25681134h60.388772v-51.25681134h72.46652641V671.80931125h-72.46652641zM789.4937718 889.06160075h-120.63025431V695.96482006h120.63025431V889.06160075z" p-id="8925" data-spm-anchor-id="a313x.search_index.0.i23.74f73a81YIVSqV" class="selected" fill="#8a8a8a"></path><path d="M575.33456576 613.33530521c124.3124965-28.72148912 217.25228949-140.36707246 217.25228949-273.36966056 0-154.65417218-125.78539337-280.58685525-280.58685525-280.58685523s-280.58685525 125.78539337-280.58685525 280.58685523c0 131.82427057 91.46689612 242.73340549 214.15920606 272.63321211v59.21045449h-30.19438599v241.26050861h30.19438599v51.25681134H575.33456576v-51.25681134h33.14017975V671.80931125H575.33456576v-58.47400604zM273.68528515 340.11293435c0-131.38240151 106.93231333-238.31471485 238.31471485-238.31471485s238.31471485 106.93231333 238.31471485 238.31471485S643.38240151 578.42764919 512 578.42764919s-238.31471485-106.93231333-238.31471485-238.31471484z m310.78124125 355.85188571V889.06160075h-33.14017977v51.25681136h-81.45119734V889.06160075h-30.194386V695.96482006h30.194386v-78.65269329c13.84523065 2.06205563 27.83775099 3.24037312 42.27214041 3.24037312 13.2560719 0 26.36485411-0.88373813 39.17905693-2.79850406v78.21082423h33.14017977z" p-id="8926" data-spm-anchor-id="a313x.search_index.0.i21.74f73a81YIVSqV" class="selected" fill="#8a8a8a"></path><path d="M521.13196064 782.71844614c0-8.10093283-4.41869063-10.75214722-9.13196064-10.75214719-1.47289687 0-2.35663501 0.29457937-2.79850407 0.73644845s-0.58915875 1.17831749-0.58915876 2.2093453v18.55850067c0.88373813 0.44186907 2.35663501 0.73644845 3.8295319 0.73644843 3.38766283 0 8.69009158-1.91476594 8.69009157-11.48859566z" p-id="8927" data-spm-anchor-id="a313x.search_index.0.i25.74f73a81YIVSqV" class="selected" fill="#8a8a8a"></path><path d="M451.611228 792.58685525c0 33.28746944 26.95401286 60.388772 60.388772 60.38877198 33.28746944 0 60.388772-26.95401286 60.388772-60.38877198s-26.95401286-60.388772-60.388772-60.388772c-33.28746944 0-60.388772 26.95401286-60.388772 60.388772z m74.52858203-20.6205563c3.38766283 2.35663501 5.44971845 5.89158752 5.44971845 10.8994369 0 10.45756784-8.83738127 14.87625845-16.64373474 15.02354815-0.73644845 0-1.62018657 0-2.20934529-0.14728969l-4.27140095-1.03102781v9.86840907c0 6.03887719 0.44186907 6.33345658 6.77532562 6.92261533v2.65121439h-22.97719127v-2.65121439c5.44971845-0.58915875 6.1861669-0.88373813 6.18616688-6.92261533v-27.69046129c0-6.03887719-0.73644845-6.77532564-6.18616688-7.06990502v-2.65121438h20.62055628c5.74429781-0.1472897 10.31027814 0.58915875 13.2560719 2.79850407z m45.36522384-446.43504369h-57.8848473l70.84633983-106.1958649h-96.62203519l-48.31101761 131.97156026h51.55139072l-38.58989819 109.43623803z" p-id="8928" data-spm-anchor-id="a313x.search_index.0.i22.74f73a81YIVSqV" class="selected" fill="#8a8a8a"></path></svg>