<?xml version="1.0" standalone="no"?><!DOCTYPE svg PUBLIC "-//W3C//DTD SVG 1.1//EN" "http://www.w3.org/Graphics/SVG/1.1/DTD/svg11.dtd"><svg t="1723367206679" class="icon" viewBox="0 0 1024 1024" version="1.1" xmlns="http://www.w3.org/2000/svg" p-id="8670" xmlns:xlink="http://www.w3.org/1999/xlink" width="200" height="200"><path d="M689.28 70.144a68.992 68.992 0 0 1 63.104 73.664V855.68h222.528a49.664 49.664 0 0 1 0 98.176H49.088a49.664 49.664 0 0 1 0-98.176h222.464V143.808a68.992 68.992 0 0 1 63.104-73.664h354.56zM217.408 239.488v468.864H72a46.016 46.016 0 0 1-42.112-49.088V288.576a46.016 46.016 0 0 1 42.112-49.088z m694.784 0a44.8 44.8 0 0 1 41.792 43.392v92.864a44.8 44.8 0 0 1 41.856 43.392v103.872a47.104 47.104 0 0 1-37.184 48.832h-4.928v87.168a47.04 47.04 0 0 1-37.184 48.768l-4.928 0.32h-105.6V239.232h105.6z m-363.84 6.4a7.936 7.936 0 0 0-7.36 3.712L383.36 480.96l-1.28 2.752a10.88 10.88 0 0 0 2.624 11.072l1.6 1.152a7.488 7.488 0 0 0 3.648 0.96h92.928l-14.912 192.96v2.624a9.344 9.344 0 0 0 6.4 7.808 7.808 7.808 0 0 0 8.64-3.456l157.632-231.36 1.28-2.688a10.88 10.88 0 0 0-2.624-11.072l-1.6-1.152a7.424 7.424 0 0 0-3.648-0.96H541.056l14.912-192.96v-2.624a9.024 9.024 0 0 0-7.552-8.064z" fill="#1afa29" p-id="8671" data-spm-anchor-id="a313x.search_index.0.i16.74f73a81YIVSqV" class="selected"></path></svg>