<?xml version="1.0" standalone="no"?><!DOCTYPE svg PUBLIC "-//W3C//DTD SVG 1.1//EN" "http://www.w3.org/Graphics/SVG/1.1/DTD/svg11.dtd"><svg t="1723367121309" class="icon" viewBox="0 0 1024 1024" version="1.1" xmlns="http://www.w3.org/2000/svg" p-id="7472" xmlns:xlink="http://www.w3.org/1999/xlink" width="200" height="200"><path d="M88.032793 549.734005A421.079219 421.079219 0 0 1 412.139422 141.363732a106.729549 106.729549 0 1 0-4.517981-50.955784C191.631355 139.977738 36.776009 330.791931 36.776009 551.601998A476.793984 476.793984 0 0 0 62.131902 701.518364l47.221801-19.153919a410.238265 410.238265 0 0 1-21.32191-132.62944zM512.906996 51.317113a54.810768 54.810768 0 0 1 55.412766 55.413766 55.412766 55.412766 0 0 1-110.826532 0 54.810768 54.810768 0 0 1 55.413766-55.413766z m1.926992 921.424104a430.234181 430.234181 0 0 1-225.688046-64.929726 106.669549 106.669549 0 1 0-102.393567 76.614676 106.249551 106.249551 0 0 0 75.891679-31.862865 469.807013 469.807013 0 0 0 250.262942 71.434698 520.642798 520.642798 0 0 0 154.012349-24.091898l-18.069924-48.606795a410.358265 410.358265 0 0 1-134.015433 21.44191zM186.812375 933.170384a55.473765 55.473765 0 1 1 55.413766-55.473765 54.870768 54.870768 0 0 1-55.413766 55.473765z m800.358616-381.568386a473.841996 473.841996 0 0 0-265.01888-423.066212l-21.623908 46.197805a418.54923 418.54923 0 0 1 169.853282 601.231458 106.729549 106.729549 0 1 0 75.349681 101.972569 106.30955 106.30955 0 0 0-30.83787-74.867684A478.238978 478.238978 0 0 0 987.170991 551.601998z m-148.109374 381.568386a55.473765 55.473765 0 1 1 55.412766-55.473765 54.930768 54.930768 0 0 1-55.412766 55.473765z m-309.168693-619.061382L354.616665 600.62979h167.745291l-32.042864 199.789155 190.392195-292.183764H505.378028l24.513896-194.127179z" p-id="7473" data-spm-anchor-id="a313x.search_index.0.i13.74f73a81YIVSqV" class="selected" fill="#1afa29"></path></svg>