<?xml version="1.0" standalone="no"?><!DOCTYPE svg PUBLIC "-//W3C//DTD SVG 1.1//EN" "http://www.w3.org/Graphics/SVG/1.1/DTD/svg11.dtd"><svg t="1723431704921" class="icon" viewBox="0 0 1024 1024" version="1.1" xmlns="http://www.w3.org/2000/svg" p-id="9786" xmlns:xlink="http://www.w3.org/1999/xlink" width="200" height="200"><path d="M570.6 844.3L512 883.9l-58.6-39.6C288.1 732.4 190 551.8 190 359.3V247.7l322-123.2 322 123.2v111.5c0 192.6-98.2 373.2-263.4 485.1z" fill="#8a8a8a" p-id="9787" data-spm-anchor-id="a313x.search_index.0.i17.6f403a81MYPZ6u" class="selected"></path><path d="M476.2 586.4c-8 0-15.6-3.2-21.2-8.8l-110-110c-11.7-11.7-11.7-30.7 0-42.4s30.7-11.7 42.4 0l88.8 88.8 183.7-183.7c11.7-11.7 30.7-11.7 42.4 0s11.7 30.7 0 42.4L497.4 577.6c-5.6 5.7-13.2 8.8-21.2 8.8z" fill="#FFFFFF" p-id="9788"></path></svg>