<?xml version="1.0" standalone="no"?><!DOCTYPE svg PUBLIC "-//W3C//DTD SVG 1.1//EN" "http://www.w3.org/Graphics/SVG/1.1/DTD/svg11.dtd"><svg t="1723368165289" class="icon" viewBox="0 0 1024 1024" version="1.1" xmlns="http://www.w3.org/2000/svg" p-id="29222" xmlns:xlink="http://www.w3.org/1999/xlink" width="200" height="200"><path d="M920 496H768V232.1a40 40 0 0 0-40-40H512V104a40 40 0 0 0-40-40H104a40 40 0 0 0-40 40v240a40 40 0 0 0 40 40h368a40 40 0 0 0 40-40v-87.9h192V496H552a40 40 0 0 0-40 40v104H320V528h74a4 4 0 0 0 4-4v-64a4 4 0 0 0-4-4H182a4 4 0 0 0-4 4v64a4 4 0 0 0 4 4h74v136a40 40 0 0 0 40 40h216v72a40 40 0 0 0 40 40h368a40 40 0 0 0 40-40V536a40 40 0 0 0-40-40z m-78 392H630a4 4 0 0 0-4 4v64a4 4 0 0 0 4 4h212a4 4 0 0 0 4-4v-64a4 4 0 0 0-4-4z" p-id="29223" fill="#1afa29"></path></svg>