<?xml version="1.0" standalone="no"?><!DOCTYPE svg PUBLIC "-//W3C//DTD SVG 1.1//EN" "http://www.w3.org/Graphics/SVG/1.1/DTD/svg11.dtd"><svg t="1723434717811" class="icon" viewBox="0 0 1024 1024" version="1.1" xmlns="http://www.w3.org/2000/svg" p-id="22896" xmlns:xlink="http://www.w3.org/1999/xlink" width="200" height="200"><path d="M853.376 469.312h-42.688V298.688h42.688v-128h85.312v128h42.688v170.624h-42.688V768a128 128 0 0 1-256 0V597.312h-85.312v213.376H640V896H85.376v-85.312H128v-640A42.688 42.688 0 0 1 170.688 128h384a42.688 42.688 0 0 1 42.688 42.688V512h85.312A85.312 85.312 0 0 1 768 597.312V768a42.688 42.688 0 1 0 85.376 0V469.312z m-469.376 0V298.688l-170.688 256h128v170.624l170.688-256H384z" fill="#8a8a8a" p-id="22897"></path></svg>