<?xml version="1.0" standalone="no"?><!DOCTYPE svg PUBLIC "-//W3C//DTD SVG 1.1//EN" "http://www.w3.org/Graphics/SVG/1.1/DTD/svg11.dtd"><svg t="1723367887777" class="icon" viewBox="0 0 1024 1024" version="1.1" xmlns="http://www.w3.org/2000/svg" p-id="20510" data-spm-anchor-id="a313x.search_index.0.i34.74f73a81YIVSqV" xmlns:xlink="http://www.w3.org/1999/xlink" width="200" height="200"><path d="M511.99 959.31c-246.65 0-447.31-200.66-447.31-447.3 0-246.65 200.66-447.32 447.31-447.32s447.32 200.67 447.32 447.32c0 246.64-200.66 447.3-447.32 447.3z m0-854.73c-224.65 0-407.42 182.77-407.42 407.43 0 224.65 182.77 407.42 407.42 407.42 224.66 0 407.43-182.77 407.43-407.42 0-224.66-182.77-407.43-407.43-407.43z" fill="#1afa29" p-id="20511" data-spm-anchor-id="a313x.search_index.0.i33.74f73a81YIVSqV" class="selected"></path><path d="M489.3 376.56v-86.91H358.32c-17.83 0-32.36-14.08-32.36-31.35 0-17.28 14.54-31.35 32.36-31.35h317.37c17.83 0 32.36 14.08 32.36 31.35 0 17.46-14.53 31.35-32.35 31.35H544.91v86.91h10.26c12.2 0 22.08 9.57 22.08 21.4v51.13l-120.32-0.19v-50.94c0-11.83 9.88-21.4 22.09-21.4h10.28zM273.77 709.85v36.05c0 5.25-4.43 9.57-9.99 9.57h-25.56c-5.57 0-9.99-4.32-9.99-9.76V515.17c0-5.44 4.43-9.76 9.99-9.76h25.56c5.57 0 9.99 4.32 9.99 9.76v46.94h85c3.54-48.29 44.74-86.36 95.07-86.36h117.43c50.33 0 91.53 38.07 95.09 86.36h85.19V514.8c0-5.25 4.23-9.38 9.61-9.38h26.14c5.38 0 9.6 4.13 9.6 9.38v231.28c0.19 5.26-4.22 9.39-9.61 9.39h-26.14c-5.38 0-9.61-4.13-9.61-9.39v-36.23h-91.49c-13.89 34.62-48.39 59.13-88.78 59.13H453.85c-40.38 0-74.89-24.5-88.78-59.13h-91.3z m0 0" fill="#1afa29" p-id="20512" data-spm-anchor-id="a313x.search_index.0.i35.74f73a81YIVSqV" class="selected"></path></svg>