<?xml version="1.0" standalone="no"?><!DOCTYPE svg PUBLIC "-//W3C//DTD SVG 1.1//EN" "http://www.w3.org/Graphics/SVG/1.1/DTD/svg11.dtd"><svg t="1631160460343" class="icon" viewBox="0 0 1024 1024" version="1.1" xmlns="http://www.w3.org/2000/svg" p-id="14491" xmlns:xlink="http://www.w3.org/1999/xlink" width="128" height="128"><defs><style type="text/css"></style></defs><path d="M0 504.192a504.192 503.296 90 1 0 1006.592 0 504.192 503.296 90 1 0-1006.592 0Z" fill="#1afa29" p-id="14492" data-spm-anchor-id="a313x.7781069.0.i28" class="selected"></path><path d="M672 192a64 64 0 0 1 64 64v416a64 64 0 0 1-64 64h-320a64 64 0 0 1-64-64V256a64 64 0 0 1 64-64zM574.336 332.8h-90.24c-3.84 0-7.424 1.92-9.152 5.12l-57.856 104.576c-0.512 0.96 0.256 2.112 1.408 2.112h50.112c2.496 0 4.352 2.112 3.84 4.352l-31.36 145.28 167.296-193.088c1.28-1.536 0.128-3.776-1.92-3.776h-63.36c-2.432 0-3.968-2.432-2.752-4.48l35.84-57.088c0.896-1.28-0.192-3.008-1.92-3.008zM256 768h512a32 32 0 0 1 0 64H256a32 32 0 0 1 0-64z m544-448a32 32 0 0 1 32 32V576a32 32 0 0 1-64 0V352a32 32 0 0 1 32-32z m-576 0a32 32 0 0 1 32 32V576a32 32 0 1 1-64 0V352a32 32 0 0 1 32-32z" fill="#063858" p-id="14493"></path></svg>