<?xml version="1.0" standalone="no"?><!DOCTYPE svg PUBLIC "-//W3C//DTD SVG 1.1//EN" "http://www.w3.org/Graphics/SVG/1.1/DTD/svg11.dtd"><svg t="1631174317058" class="icon" viewBox="0 0 1024 1024" version="1.1" xmlns="http://www.w3.org/2000/svg" p-id="78148" xmlns:xlink="http://www.w3.org/1999/xlink" width="128" height="128"><defs><style type="text/css"></style></defs><path d="M667.886933 398.4384h-311.773866a45.7728 45.7728 0 1 1 0-91.579733h311.773866a45.806933 45.806933 0 0 1 0 91.579733M0 512c0 282.760533 229.239467 512 512 512 57.275733 0 112.298667-9.557333 163.703467-26.897067-3.754667-5.0176-61.5424-176.981333-75.912534-221.4912-14.370133-44.509867 16.657067-73.250133 37.444267-84.036266 20.821333-10.786133 61.781333-10.786133 78.165333 8.8064l-0.170666-151.2448c0-0.853333 0.068267-1.706667 0.170666-2.594134 5.3248-39.936 29.627733-62.702933 68.1984-62.702933s62.839467 22.766933 68.164267 62.702933c0.1024 0.853333 0.170667 1.706667 0.170667 2.594134v177.3568l117.828266 14.779733A509.678933 509.678933 0 0 0 1024 512c0-282.760533-229.239467-512-512-512C229.239467 0 0 229.239467 0 512z" fill="#d81e06" p-id="78149" data-spm-anchor-id="a313x.7781069.0.i55" class="selected"></path><path d="M754.2784 779.946667c0 21.2992-29.252267 27.204267-37.546667 7.5776-11.776-19.490133-21.162667-34.0992-28.228266-43.793067-10.581333-14.5408-20.036267-18.466133-33.757867-12.629333-13.687467 5.870933-18.5344 16.452267-14.267733 31.9488 4.266667 15.496533 50.858667 178.722133 60.8256 200.942933 7.168 15.906133 16.042667 21.1968 30.788266 19.182933a20.821333 20.821333 0 0 1 2.6624-0.2048h177.015467c0.341333 0 1.1264 0 2.184533-0.068266a206.472533 206.472533 0 0 0 16.384-1.706667c4.539733-0.682667 8.669867-1.4336 12.0832-2.286933 2.6624-0.682667 4.676267-1.3312 5.7344-1.774934a15.2576 15.2576 0 0 0 1.706667-2.9696 74.410667 74.410667 0 0 0 5.0176-18.363733l26.862933-128.170667a17.8176 17.8176 0 0 1 0.512-1.979733c5.632-17.5104 5.632-28.228267 2.6624-32.426667-4.334933-6.144-11.025067-10.581333-20.821333-13.312l-134.144-16.7936a19.524267 19.524267 0 0 1-17.066667-19.387733v-183.125333c-2.9696-20.138667-11.264-27.613867-29.2864-27.613867-18.056533 0-26.350933 7.441067-29.320533 27.613867v219.3408z" fill="#d81e06" p-id="78150" data-spm-anchor-id="a313x.7781069.0.i56" class="selected"></path></svg>