<?xml version="1.0" standalone="no"?><!DOCTYPE svg PUBLIC "-//W3C//DTD SVG 1.1//EN" "http://www.w3.org/Graphics/SVG/1.1/DTD/svg11.dtd"><svg t="1631172556430" class="icon" viewBox="0 0 1024 1024" version="1.1" xmlns="http://www.w3.org/2000/svg" p-id="23880" xmlns:xlink="http://www.w3.org/1999/xlink" width="128" height="128"><defs><style type="text/css"></style></defs><path d="M629.76 209.92c23.04 0 39.68-17.92 39.68-40.96V87.04c0-23.04-16.64-40.96-39.68-40.96S590.08 64 590.08 87.04v81.92c0 20.48 16.64 40.96 39.68 40.96zM391.68 817.92h39.68v163.84h158.72V817.92h39.68v-40.96H394.24v40.96h-2.56z m0-608c23.04 0 39.68-17.92 39.68-40.96V87.04c0-23.04-16.64-40.96-39.68-40.96S352 64 352 87.04v81.92c0 20.48 19.2 40.96 39.68 40.96z m-116.48 40.96v366.08c0 67.84 53.76 122.88 119.04 122.88h235.52c65.28 0 119.04-55.04 119.04-122.88V250.88h-473.6z m195.84 405.76V492.8h-79.36L550.4 328.96v163.84h79.36L471.04 656.64z" fill="#1afa29" p-id="23881"></path></svg>