<?xml version="1.0" standalone="no"?><!DOCTYPE svg PUBLIC "-//W3C//DTD SVG 1.1//EN" "http://www.w3.org/Graphics/SVG/1.1/DTD/svg11.dtd"><svg t="1632388634773" class="icon" viewBox="0 0 1024 1024" version="1.1" xmlns="http://www.w3.org/2000/svg" p-id="5874" xmlns:xlink="http://www.w3.org/1999/xlink" width="128" height="128"><defs><style type="text/css"></style></defs><path d="M513.012 61.979c-245.36-0.485-450.387 201.881-451.01 445.157-0.642 250.52 199.881 454.067 448.127 454.884 245.907 0.809 452.284-204.008 451.871-448.455-0.419-247.088-203.257-451.1-448.988-451.586z m131.241 602.918c-36.685 10.773-71.658-0.173-103.296-16.993-20.928-11.126-31.506-5.839-46.115 9.232-58.942 60.806-120.191 119.402-178.343 180.935-18.635 19.719-30.812 18.97-50.172 3.269-32.244-26.151-60.865-55.245-86.539-87.837-13.068-16.589-13.329-26.802 2.816-42.439C245.773 649.887 306.876 586.581 369.663 525c12.934-12.686 14.912-21.428 6.39-38.474-40.359-80.726-22.952-142.739 51.912-193.409 46.633-31.562 97.71-51.084 154.152-54.738 12.651-0.819 26.262-2.432 40.513 8.908-31.536 31.515-61.609 61.152-91.198 91.263-26.514 26.982-26.932 41.977-0.713 69.025 29.468 30.401 59.977 59.791 89.963 89.692 21.107 21.047 41.607 20.045 61.873-1.223 30.574-32.085 61.228-64.094 91.642-95.919 5.195 4.767 6.459 5.361 6.729 6.255 25.44 84.222-53.425 234.07-136.673 258.517z" fill="#1296db" p-id="5875"></path></svg>