<?xml version="1.0" standalone="no"?><!DOCTYPE svg PUBLIC "-//W3C//DTD SVG 1.1//EN" "http://www.w3.org/Graphics/SVG/1.1/DTD/svg11.dtd"><svg t="1631087600734" class="icon" viewBox="0 0 1024 1024" version="1.1" xmlns="http://www.w3.org/2000/svg" p-id="119316" data-spm-anchor-id="a313x.7781069.0.i51" xmlns:xlink="http://www.w3.org/1999/xlink" width="128" height="128"><defs><style type="text/css"></style></defs><path d="M512.003413 1020.586667c-136.321707 0-264.17152-52.773547-359.994026-148.59264C56.183467 776.17152 3.413333 648.321707 3.413333 512.003413c0-136.321707 52.770133-264.17152 148.596054-359.994026C247.831893 56.183467 375.681707 3.413333 512.003413 3.413333s264.168107 52.770133 359.990614 148.596054C967.81312 247.831893 1020.586667 375.681707 1020.586667 512.003413s-52.773547 264.168107-148.59264 359.990614C776.17152 967.81312 648.321707 1020.586667 512.003413 1020.586667z m-60.54912-601.135787c-8.352427 0-16.3328 3.386027-22.4768 9.526613-53.623467 55.954773-53.551787 144.923307 0.003414 198.48192l140.55424 140.550827c27.19744 26.07104 62.672213 40.342187 100.051626 40.342187 37.45792 0 72.413867-14.32576 98.42688-40.342187 53.62688-55.95136 53.5552-144.919893 0-198.475093l-80.00512-80.008534c-6.147413-6.140587-14.127787-9.530027-22.4768-9.530026-8.3456 0-16.329387 3.386027-22.473386 9.530026-6.147413 6.140587-9.530027 14.124373-9.530027 22.473387 0 8.349013 3.382613 16.3328 9.530027 22.4768l80.00512 80.001707c14.769493 14.772907 22.90688 34.05824 22.90688 54.289066 0 20.241067-8.137387 39.51616-22.90688 54.289067-14.77632 14.772907-34.054827 22.910293-54.289067 22.910293-20.23424 0-39.512747-8.137387-54.285653-22.910293l-140.550827-140.55424c-14.77632-14.772907-22.910293-34.051413-22.910293-54.285653 0-20.23424 8.133973-39.51616 22.910293-54.285654 12.598613-12.612267 12.598613-32.354987 0-44.957013-6.150827-6.137173-14.1312-9.5232-22.483627-9.5232zM333.605547 256.4096c20.23424 0 39.519573 8.133973 54.29248 22.90688l140.55424 140.55424c30.440107 30.440107 30.440107 78.134613 0 108.581547-6.144 6.140587-9.530027 14.12096-9.530027 22.4768 0 8.3456 3.386027 16.3328 9.53344 22.473386 6.137173 6.140587 14.12096 9.526613 22.469973 9.526614 8.3456 0 16.3328-3.382613 22.473387-9.530027 53.630293-55.95136 53.558613-144.919893 0-198.475093L432.8448 234.366293c-27.19744-26.07104-62.672213-40.342187-100.048213-40.342186-37.45792 0-72.413867 14.32576-98.42688 40.342186-53.62688 55.95136-53.558613 144.919893 0 198.478507l80.008533 80.008533c6.140587 6.144 14.12096 9.530027 22.473387 9.530027s16.336213-3.386027 22.4768-9.530027c12.598613-12.60544 12.598613-32.351573 0-44.950186l-80.011947-80.008534c-28.433067-30.334293-28.433067-78.240427 0.232107-108.817066 14.5408-14.533973 33.819307-22.667947 54.05696-22.667947z" fill="#1afa29" p-id="119317" data-spm-anchor-id="a313x.7781069.0.i50" class="selected"></path></svg>