<?xml version="1.0" standalone="no"?><!DOCTYPE svg PUBLIC "-//W3C//DTD SVG 1.1//EN" "http://www.w3.org/Graphics/SVG/1.1/DTD/svg11.dtd"><svg t="1631449405131" class="icon" viewBox="0 0 1024 1024" version="1.1" xmlns="http://www.w3.org/2000/svg" p-id="31293" xmlns:xlink="http://www.w3.org/1999/xlink" width="128" height="128"><defs><style type="text/css"></style></defs><path d="M836.266667 0H187.733333A187.733333 187.733333 0 0 0 0 187.733333v648.533334a187.733333 187.733333 0 0 0 187.733333 187.733333h648.533334a187.733333 187.733333 0 0 0 187.733333-187.733333V187.733333A187.733333 187.733333 0 0 0 836.266667 0z m85.333333 836.266667a85.333333 85.333333 0 0 1-85.333333 85.333333H187.733333a85.333333 85.333333 0 0 1-85.333333-85.333333V187.733333a85.333333 85.333333 0 0 1 85.333333-85.333333h648.533334a85.333333 85.333333 0 0 1 85.333333 85.333333z" fill="#1296db" p-id="31294"></path><path d="M517.973333 256q91.136 0 147.285334 83.626667a318.293333 318.293333 0 0 1 51.2 181.930666 281.258667 281.258667 0 0 1-49.493334 170.666667A180.224 180.224 0 0 1 512 768a179.541333 179.541333 0 0 1-153.6-79.701333 290.133333 290.133333 0 0 1-51.2-174.592 292.010667 292.010667 0 0 1 52.906667-177.322667A184.661333 184.661333 0 0 1 517.973333 256zM512 367.445333a75.946667 75.946667 0 0 0-68.266667 46.08 211.968 211.968 0 0 0-22.357333 101.376A210.773333 210.773333 0 0 0 443.733333 615.765333a77.824 77.824 0 0 0 69.461334 45.568q39.765333 0 64-48.128a230.912 230.912 0 0 0 21.845333-104.106666 202.069333 202.069333 0 0 0-21.162667-97.621334A72.874667 72.874667 0 0 0 512 367.445333z" fill="#1296db" p-id="31295"></path></svg>