<?xml version="1.0" standalone="no"?><!DOCTYPE svg PUBLIC "-//W3C//DTD SVG 1.1//EN" "http://www.w3.org/Graphics/SVG/1.1/DTD/svg11.dtd"><svg t="1631173753925" class="icon" viewBox="0 0 1024 1024" version="1.1" xmlns="http://www.w3.org/2000/svg" p-id="37694" xmlns:xlink="http://www.w3.org/1999/xlink" width="128" height="128"><defs><style type="text/css"></style></defs><path d="M512 512m-512 0a512 512 0 1 0 1024 0 512 512 0 1 0-1024 0Z" fill="#1296db" p-id="37695" data-spm-anchor-id="a313x.7781069.0.i44" class="selected"></path><path d="M691.968 591.2064l-123.904-63.3856a37.4784 37.4784 0 0 0-14.7456-3.072H532.48V356.5056a41.472 41.472 0 0 0-41.0112-42.0864 41.472 41.472 0 0 0-40.96 42.0864v301.1584l-93.696-20.1728c-2.2016-0.256-4.096-0.8704-6.5024-0.8704a30.0032 30.0032 0 0 0-21.5552 9.3184L307.2 668.3136l134.8608 138.496A40.6528 40.6528 0 0 0 471.04 819.2h185.344c20.48 0 36.352-15.4624 39.3728-35.84l20.48-147.8656c0.256-1.9456 0.5632-3.8912 0.5632-5.5296a42.0864 42.0864 0 0 0-24.832-38.7584M423.2704 461.312V356.5568c0-38.7072 30.6176-70.0928 68.2496-70.0928s68.2496 31.3856 68.2496 70.0928v104.8576a126.72 126.72 0 0 0 54.5792-104.8576C614.4 286.72 559.5136 230.4 491.52 230.4c-67.9424 0-122.7776 56.32-122.7776 126.1568 0 43.7248 21.504 82.176 54.5792 104.8576" fill="#FFFFFF" p-id="37696"></path></svg>